<svg xmlns="http://www.w3.org/2000/svg" xmlns:xlink="http://www.w3.org/1999/xlink" contentStyleType="text/css" data-diagram-type="SEQUENCE" height="422px" preserveAspectRatio="none" style="width:1567px;height:422px;background:#FFFFFF;" version="1.1" viewBox="0 0 1567 422" width="1567px" zoomAndPan="magnify"><defs/><g><g><title>ccfe</title><rect fill="#000000" fill-opacity="0.00000" height="260.4844" width="8" x="17.6445" y="81.4883"/><line style="stroke:#181818;stroke-width:0.5;stroke-dasharray:5.0,5.0;" x1="21" x2="21" y1="81.4883" y2="341.9727"/></g><g><title>google_proxy</title><rect fill="#000000" fill-opacity="0.00000" height="260.4844" width="8" x="280.5132" y="81.4883"/><line style="stroke:#181818;stroke-width:0.5;stroke-dasharray:5.0,5.0;" x1="284.2407" x2="284.2407" y1="81.4883" y2="341.9727"/></g><g><title>temporal</title><rect fill="#000000" fill-opacity="0.00000" height="260.4844" width="8" x="553.2969" y="81.4883"/><line style="stroke:#181818;stroke-width:0.5;stroke-dasharray:5.0,5.0;" x1="556.7847" x2="556.7847" y1="81.4883" y2="341.9727"/></g><g><title>vcp_worker</title><rect fill="#000000" fill-opacity="0.00000" height="260.4844" width="8" x="851.6489" y="81.4883"/><line style="stroke:#181818;stroke-width:0.5;stroke-dasharray:5.0,5.0;" x1="855.1216" x2="855.1216" y1="81.4883" y2="341.9727"/></g><g><title>vlm</title><rect fill="#000000" fill-opacity="0.00000" height="260.4844" width="8" x="1333.2642" y="81.4883"/><line style="stroke:#181818;stroke-width:0.5;stroke-dasharray:5.0,5.0;" x1="1337.0825" x2="1337.0825" y1="81.4883" y2="341.9727"/></g><g class="participant participant-head" data-participant="ccfe"><text fill="#000000" font-family="sans-serif" font-size="14" lengthAdjust="spacing" textLength="27.2891" x="5" y="78.5352">ccfe</text><ellipse cx="21.6445" cy="13.5" fill="#E2E2F0" rx="8" ry="8" style="stroke:#181818;stroke-width:0.5;"/><path d="M21.6445,21.5 L21.6445,48.5 M8.6445,29.5 L34.6445,29.5 M21.6445,48.5 L8.6445,63.5 M21.6445,48.5 L34.6445,63.5" fill="none" style="stroke:#181818;stroke-width:0.5;"/></g><g class="participant participant-tail" data-participant="ccfe"><text fill="#000000" font-family="sans-serif" font-size="14" lengthAdjust="spacing" textLength="27.2891" x="5" y="354.5078">ccfe</text><ellipse cx="21.6445" cy="365.9609" fill="#E2E2F0" rx="8" ry="8" style="stroke:#181818;stroke-width:0.5;"/><path d="M21.6445,373.9609 L21.6445,400.9609 M8.6445,381.9609 L34.6445,381.9609 M21.6445,400.9609 L8.6445,415.9609 M21.6445,400.9609 L34.6445,415.9609" fill="none" style="stroke:#181818;stroke-width:0.5;"/></g><g class="participant participant-head" data-participant="google_proxy"><text fill="#000000" font-family="sans-serif" font-size="14" lengthAdjust="spacing" textLength="92.5449" x="235.2407" y="78.5352">google_proxy</text><ellipse cx="284.5132" cy="13.5" fill="#E2E2F0" rx="8" ry="8" style="stroke:#181818;stroke-width:0.5;"/><path d="M284.5132,21.5 L284.5132,48.5 M271.5132,29.5 L297.5132,29.5 M284.5132,48.5 L271.5132,63.5 M284.5132,48.5 L297.5132,63.5" fill="none" style="stroke:#181818;stroke-width:0.5;"/></g><g class="participant participant-tail" data-participant="google_proxy"><text fill="#000000" font-family="sans-serif" font-size="14" lengthAdjust="spacing" textLength="92.5449" x="235.2407" y="354.5078">google_proxy</text><ellipse cx="284.5132" cy="365.9609" fill="#E2E2F0" rx="8" ry="8" style="stroke:#181818;stroke-width:0.5;"/><path d="M284.5132,373.9609 L284.5132,400.9609 M271.5132,381.9609 L297.5132,381.9609 M284.5132,400.9609 L271.5132,415.9609 M284.5132,400.9609 L297.5132,415.9609" fill="none" style="stroke:#181818;stroke-width:0.5;"/></g><g class="participant participant-head" data-participant="temporal"><text fill="#000000" font-family="sans-serif" font-size="14" lengthAdjust="spacing" textLength="61.0244" x="523.7847" y="78.5352">temporal</text><ellipse cx="557.2969" cy="13.5" fill="#E2E2F0" rx="8" ry="8" style="stroke:#181818;stroke-width:0.5;"/><path d="M557.2969,21.5 L557.2969,48.5 M544.2969,29.5 L570.2969,29.5 M557.2969,48.5 L544.2969,63.5 M557.2969,48.5 L570.2969,63.5" fill="none" style="stroke:#181818;stroke-width:0.5;"/></g><g class="participant participant-tail" data-participant="temporal"><text fill="#000000" font-family="sans-serif" font-size="14" lengthAdjust="spacing" textLength="61.0244" x="523.7847" y="354.5078">temporal</text><ellipse cx="557.2969" cy="365.9609" fill="#E2E2F0" rx="8" ry="8" style="stroke:#181818;stroke-width:0.5;"/><path d="M557.2969,373.9609 L557.2969,400.9609 M544.2969,381.9609 L570.2969,381.9609 M557.2969,400.9609 L544.2969,415.9609 M557.2969,400.9609 L570.2969,415.9609" fill="none" style="stroke:#181818;stroke-width:0.5;"/></g><g class="participant participant-head" data-participant="vcp_worker"><text fill="#000000" font-family="sans-serif" font-size="14" lengthAdjust="spacing" textLength="77.0547" x="814.1216" y="78.5352">vcp_worker</text><ellipse cx="855.6489" cy="13.5" fill="#E2E2F0" rx="8" ry="8" style="stroke:#181818;stroke-width:0.5;"/><path d="M855.6489,21.5 L855.6489,48.5 M842.6489,29.5 L868.6489,29.5 M855.6489,48.5 L842.6489,63.5 M855.6489,48.5 L868.6489,63.5" fill="none" style="stroke:#181818;stroke-width:0.5;"/></g><g class="participant participant-tail" data-participant="vcp_worker"><text fill="#000000" font-family="sans-serif" font-size="14" lengthAdjust="spacing" textLength="77.0547" x="814.1216" y="354.5078">vcp_worker</text><ellipse cx="855.6489" cy="365.9609" fill="#E2E2F0" rx="8" ry="8" style="stroke:#181818;stroke-width:0.5;"/><path d="M855.6489,373.9609 L855.6489,400.9609 M842.6489,381.9609 L868.6489,381.9609 M855.6489,400.9609 L842.6489,415.9609 M855.6489,400.9609 L868.6489,415.9609" fill="none" style="stroke:#181818;stroke-width:0.5;"/></g><g class="participant participant-head" data-participant="vlm"><text fill="#000000" font-family="sans-serif" font-size="14" lengthAdjust="spacing" textLength="24.3633" x="1322.0825" y="78.5352">vlm</text><ellipse cx="1337.2642" cy="13.5" fill="#E2E2F0" rx="8" ry="8" style="stroke:#181818;stroke-width:0.5;"/><path d="M1337.2642,21.5 L1337.2642,48.5 M1324.2642,29.5 L1350.2642,29.5 M1337.2642,48.5 L1324.2642,63.5 M1337.2642,48.5 L1350.2642,63.5" fill="none" style="stroke:#181818;stroke-width:0.5;"/></g><g class="participant participant-tail" data-participant="vlm"><text fill="#000000" font-family="sans-serif" font-size="14" lengthAdjust="spacing" textLength="24.3633" x="1322.0825" y="354.5078">vlm</text><ellipse cx="1337.2642" cy="365.9609" fill="#E2E2F0" rx="8" ry="8" style="stroke:#181818;stroke-width:0.5;"/><path d="M1337.2642,373.9609 L1337.2642,400.9609 M1324.2642,381.9609 L1350.2642,381.9609 M1337.2642,400.9609 L1324.2642,415.9609 M1337.2642,400.9609 L1350.2642,415.9609" fill="none" style="stroke:#181818;stroke-width:0.5;"/></g><g class="message" data-participant-1="ccfe" data-participant-2="google_proxy"><polygon fill="#181818" points="272.5132,108.7988,282.5132,112.7988,272.5132,116.7988,276.5132,112.7988" style="stroke:#181818;stroke-width:1;"/><line style="stroke:#181818;stroke-width:1;" x1="21.6445" x2="278.5132" y1="112.7988" y2="112.7988"/><text fill="#000000" font-family="sans-serif" font-size="13" lengthAdjust="spacing" textLength="238.8687" x="28.6445" y="108.0566">create or update storage pool request</text></g><g class="message" data-participant-1="google_proxy" data-participant-2="temporal"><polygon fill="#181818" points="545.2969,138.1094,555.2969,142.1094,545.2969,146.1094,549.2969,142.1094" style="stroke:#181818;stroke-width:1;"/><line style="stroke:#181818;stroke-width:1;" x1="284.5132" x2="551.2969" y1="142.1094" y2="142.1094"/><text fill="#000000" font-family="sans-serif" font-size="13" lengthAdjust="spacing" textLength="248.7837" x="291.5132" y="137.3672">create or update storage pool workflow</text></g><g class="message" data-participant-1="temporal" data-participant-2="google_proxy"><polygon fill="#181818" points="295.5132,167.4199,285.5132,171.4199,295.5132,175.4199,291.5132,171.4199" style="stroke:#181818;stroke-width:1;"/><line style="stroke:#181818;stroke-width:1;stroke-dasharray:2.0,2.0;" x1="289.5132" x2="556.2969" y1="171.4199" y2="171.4199"/><text fill="#000000" font-family="sans-serif" font-size="13" lengthAdjust="spacing" textLength="15.5835" x="301.5132" y="166.6777">ok</text></g><g class="message" data-participant-1="google_proxy" data-participant-2="ccfe"><polygon fill="#181818" points="32.6445,196.7305,22.6445,200.7305,32.6445,204.7305,28.6445,200.7305" style="stroke:#181818;stroke-width:1;"/><line style="stroke:#181818;stroke-width:1;stroke-dasharray:2.0,2.0;" x1="26.6445" x2="283.5132" y1="200.7305" y2="200.7305"/><text fill="#000000" font-family="sans-serif" font-size="13" lengthAdjust="spacing" textLength="15.5835" x="38.6445" y="195.9883">ok</text></g><g class="message" data-participant-1="temporal" data-participant-2="vcp_worker"><polygon fill="#181818" points="843.6489,229.041,853.6489,233.041,843.6489,237.041,847.6489,233.041" style="stroke:#181818;stroke-width:1;"/><line style="stroke:#181818;stroke-width:1;" x1="557.2969" x2="849.6489" y1="233.041" y2="233.041"/><text fill="#000000" font-family="sans-serif" font-size="13" lengthAdjust="spacing" textLength="274.3521" x="564.2969" y="228.2988">run create or update storage pool workflow</text></g><path d="M860,213.7305 L860,238.7305 L1560,238.7305 L1560,223.7305 L1550,213.7305 L860,213.7305" fill="#FEFFDD" style="stroke:#181818;stroke-width:0.5;"/><path d="M1550,213.7305 L1550,223.7305 L1560,223.7305 L1550,213.7305" fill="#FEFFDD" style="stroke:#181818;stroke-width:0.5;"/><text fill="#000000" font-family="sans-serif" font-size="13" lengthAdjust="spacing" textLength="679.853" x="866" y="231.2988">Invoke the VMRS module to identify the instance types for the HA-pair as part of the `IdentifyVMs` activity.</text><g class="message" data-participant-1="vcp_worker" data-participant-2="vlm"><polygon fill="#181818" points="1325.2642,261.3516,1335.2642,265.3516,1325.2642,269.3516,1329.2642,265.3516" style="stroke:#181818;stroke-width:1;"/><line style="stroke:#181818;stroke-width:1;" x1="855.6489" x2="1331.2642" y1="265.3516" y2="265.3516"/><text fill="#000000" font-family="sans-serif" font-size="13" lengthAdjust="spacing" textLength="457.6152" x="862.6489" y="260.6094">create/update cluster using instance types specified in workflow params</text></g><g class="message" data-participant-1="vlm" data-participant-2="vcp_worker"><polygon fill="#181818" points="866.6489,290.6621,856.6489,294.6621,866.6489,298.6621,862.6489,294.6621" style="stroke:#181818;stroke-width:1;"/><line style="stroke:#181818;stroke-width:1;stroke-dasharray:2.0,2.0;" x1="860.6489" x2="1336.2642" y1="294.6621" y2="294.6621"/><text fill="#000000" font-family="sans-serif" font-size="13" lengthAdjust="spacing" textLength="15.5835" x="872.6489" y="289.9199">ok</text></g><g class="message" data-participant-1="vcp_worker" data-participant-2="temporal"><polygon fill="#181818" points="568.2969,319.9727,558.2969,323.9727,568.2969,327.9727,564.2969,323.9727" style="stroke:#181818;stroke-width:1;"/><line style="stroke:#181818;stroke-width:1;stroke-dasharray:2.0,2.0;" x1="562.2969" x2="854.6489" y1="323.9727" y2="323.9727"/><text fill="#000000" font-family="sans-serif" font-size="13" lengthAdjust="spacing" textLength="119.6406" x="574.2969" y="319.2305">workflow complete</text></g><!--SRC=[ZL2xSiCW4EpvYli19RqcavbqSU4ccN5hC-YG6G67USZHtmU894jfaWvsxtRtbej87eIGo7XzzaIznhFpz3NDK4JZo7CzVqVXpdVo0_e5q8OL1MXUT-ij28yy8kIPvBho2dcUzmYEI8F7My8GsNQdQ2n-V-sN45BJVI_mqZGR1Hf-eXLqdoqpR9ahhe-pMl39_jVRKgQywg-nXOCTQK28LuJJyUCJ37L9vp-1wj169QVAAHiYjo8JayC0ibISuVUtnd7bWGTmt4SWMU7BOTuz7SC5SkDgL75wOe-yDRqsIrtFSrwXKuYPJK7P_hTfS2YKLDXbOZsc-78JjjAbjwgTwrhRgk2chdLVa74Q8x9l]--></g></svg>